<?xml version="1.0" encoding="utf-8"?>
<!-- Generator: Adobe Illustrator 22.0.1, SVG Export Plug-In . SVG Version: 6.00 Build 0)  -->
<svg version="1.1" id="Layer_1" xmlns="http://www.w3.org/2000/svg" xmlns:xlink="http://www.w3.org/1999/xlink" x="0px" y="0px"
	 viewBox="0 0 157 30" style="enable-background:new 0 0 157 30;" xml:space="preserve">
<style type="text/css">
	.st0{fill:#FFFFFF;}
</style>
<path class="st0" d="M24,27.1l0-21.6L13.4,23.7h-0.9L1.9,5.6v21.5H0.1V1.9h1.5L13,21.4L24.2,1.9h1.5l0,25.2H24z"/>
<path class="st0" d="M85.2,1.9v25.2h-1.5L66.6,5.2v21.9h-1.8V1.9h1.5l17.1,21.9V1.9H85.2z"/>
<path class="st0" d="M98.9,3.5h-9.1V1.9h20v1.7h-9.1v23.5h-1.8V3.5z"/>
<path class="st0" d="M131.8,27.1l-6-8.4c-0.9,0.1-1.7,0.2-2.4,0.2h-7.2v8.2h-1.8V1.9h9c3.2,0,5.7,0.8,7.5,2.3
	c1.8,1.5,2.7,3.6,2.7,6.2c0,2-0.5,3.7-1.5,5c-1,1.4-2.5,2.3-4.4,2.9l6.3,8.8H131.8z M123.3,17.2c2.7,0,4.7-0.6,6.2-1.8
	s2.1-2.9,2.1-5.1c0-2.2-0.7-3.9-2.1-5.1s-3.5-1.8-6.2-1.8h-7.2v13.7H123.3z"/>
<path class="st0" d="M157.6,25.4v1.7h-17.4V1.9h16.8v1.7h-15v9.9h13.4v1.6h-13.4v10.3H157.6z"/>
<g>
	<path class="st0" d="M47.8,14.7c-0.6-0.4-1.5-0.7-2.5-0.7c-1.1,0-1.9,0.2-2.5,0.7c-0.6,0.4-0.9,1-0.9,1.8c0,0.8,0.3,1.4,0.9,1.8
		c0.6,0.4,1.4,0.7,2.5,0.7c1.1,0,1.9-0.2,2.5-0.7s0.9-1,0.9-1.8C48.7,15.7,48.4,15.2,47.8,14.7z"/>
	<path class="st0" d="M47.5,12.8c0.5-0.4,0.8-0.9,0.8-1.6c0-0.7-0.3-1.2-0.8-1.6S46.2,9,45.2,9c-0.9,0-1.7,0.2-2.2,0.6
		s-0.8,0.9-0.8,1.6c0,0.7,0.3,1.2,0.8,1.6c0.5,0.4,1.3,0.6,2.2,0.6C46.2,13.4,46.9,13.2,47.5,12.8z"/>
	<path class="st0" d="M56.6,7.9c-1.1-1.9-2.7-3.5-4.7-4.6c-2-1.1-4.2-1.7-6.7-1.7c-2.5,0-4.7,0.6-6.7,1.7C36.6,4.5,35,6,33.9,8
		c-1.1,1.9-1.7,4.1-1.7,6.5c0,2.4,0.6,4.6,1.7,6.5c1.1,1.9,2.7,3.5,4.7,4.6c2,1.1,4.2,1.7,6.7,1.7c2.5,0,4.7-0.6,6.7-1.7
		c2-1.1,3.6-2.6,4.7-4.6c1.1-1.9,1.7-4.1,1.7-6.6C58.4,12.1,57.8,9.9,56.6,7.9z M48.4,18.8c-0.8,0.6-1.8,0.8-3.1,0.8
		c-1.3,0-2.3-0.3-3.1-0.8c-0.8-0.6-1.1-1.3-1.1-2.3c0-0.7,0.2-1.3,0.6-1.8c0.4-0.5,1-0.8,1.8-1c-0.6-0.2-1.1-0.5-1.5-1
		s-0.5-0.9-0.5-1.6c0-0.9,0.3-1.6,1-2.1s1.6-0.8,2.8-0.8s2.1,0.3,2.8,0.8c0.7,0.5,1.1,1.2,1.1,2.1c0,0.6-0.2,1.1-0.5,1.6
		c-0.3,0.4-0.8,0.8-1.5,1c0.8,0.2,1.4,0.5,1.8,1s0.6,1.1,0.6,1.8C49.5,17.5,49.1,18.2,48.4,18.8z"/>
</g>
</svg>
