<?xml version="1.0" encoding="UTF-8" standalone="no"?>
<svg
   xmlns:dc="http://purl.org/dc/elements/1.1/"
   xmlns:cc="http://creativecommons.org/ns#"
   xmlns:rdf="http://www.w3.org/1999/02/22-rdf-syntax-ns#"
   xmlns:svg="http://www.w3.org/2000/svg"
   xmlns="http://www.w3.org/2000/svg"
   xmlns:sodipodi="http://sodipodi.sourceforge.net/DTD/sodipodi-0.dtd"
   xmlns:inkscape="http://www.inkscape.org/namespaces/inkscape"
   id="svg8"
   version="1.1"
   viewBox="0 0 79.375006 18.785417"
   height="71"
   width="300"
   sodipodi:docname="montre-logo.svg">
  <sodipodi:namedview
     pagecolor="#000000"
     bordercolor="#666666"
     inkscape:document-rotation="0"
     borderopacity="1"
     objecttolerance="10"
     gridtolerance="10"
     guidetolerance="10"
     inkscape:pageopacity="0"
     inkscape:pageshadow="2"
     inkscape:window-width="640"
     inkscape:window-height="480"
     id="namedview849"
     showgrid="false" />
  <defs
     id="defs2">
    <rect
       x="13.972379"
       y="-25.467384"
       width="57.17775"
       height="20.017166"
       id="rect859" />
    <rect
       x="8.4268021"
       y="-26.754644"
       width="29.530275"
       height="17.837079"
       id="rect853" />
    <rect
       id="rect838"
       height="12.938583"
       width="37.62508"
       y="24.845255"
       x="4.7626686" />
  </defs>
  <metadata
     id="metadata5">
    <rdf:RDF>
      <cc:Work
         rdf:about="">
        <dc:format>image/svg+xml</dc:format>
        <dc:type
           rdf:resource="http://purl.org/dc/dcmitype/StillImage" />
        <dc:title></dc:title>
      </cc:Work>
    </rdf:RDF>
  </metadata>
  <g
     id="layer1">
    <text
       style="font-style:normal;font-weight:normal;font-size:10.5833px;line-height:1.25;font-family:sans-serif;shape-inside:url(#rect838);fill:#000000;fill-opacity:1;stroke:none"
       id="text836"
       xml:space="preserve" />
    <text
       xml:space="preserve"
       id="text857"
       style="font-style:normal;font-weight:normal;font-size:12.7px;line-height:1.25;font-family:sans-serif;shape-inside:url(#rect859);fill:#ffffff;fill-opacity:1;stroke:none"
       transform="translate(-15.369656,26.079479)"><tspan
         sodipodi:role="line"
         id="tspan861"
         x="13.972656"
         y="-13.79431"
         style="font-style:normal;font-variant:normal;font-weight:300;font-stretch:normal;font-family:Montserrat;-inkscape-font-specification:'Montserrat Light';fill:#ffffff">MONTRE</tspan></text>
    <path
       d="m 27.47103,-10.93709 c 0.719147,0 1.373228,0.163941 1.962243,0.491822 0.589015,0.327883 1.051323,0.7813354 1.386925,1.3603602 0.34245,0.5720491 0.513676,1.210372 0.513676,1.9149685 0,0.7045974 -0.171226,1.3464081 -0.513676,1.9254329 -0.335602,0.5790248 -0.79791,1.0359666 -1.386925,1.3708245 -0.589015,0.3278814 -1.243096,0.4918225 -1.962243,0.4918225 -0.719146,0 -1.373227,-0.1639411 -1.962242,-0.4918225 -0.589015,-0.3348579 -1.054748,-0.788311 -1.397199,-1.3603602 -0.335602,-0.5790248 -0.503402,-1.2243242 -0.503402,-1.9358972 0,-0.7045965 0.1678,-1.3429194 0.503402,-1.9149685 0.342451,-0.5790248 0.804759,-1.0324772 1.386925,-1.3603602 0.589015,-0.327881 1.246521,-0.491822 1.972516,-0.491822 z"
       style="font-style:normal;font-variant:normal;font-weight:600;font-stretch:normal;font-size:12.7px;line-height:1.25;font-family:Montserrat;-inkscape-font-specification:'Montserrat Semi-Bold';opacity:1;fill:#ffffff;fill-opacity:1;stroke:none;stroke-width:0.264583;stop-opacity:1"
       id="path854-0"
       inkscape:connector-curvature="0" />
  </g>
</svg>
