<?xml version="1.0" encoding="utf-8"?>
<!-- Generator: Adobe Illustrator 22.0.1, SVG Export Plug-In . SVG Version: 6.00 Build 0)  -->
<svg version="1.1" id="Layer_1" xmlns="http://www.w3.org/2000/svg" xmlns:xlink="http://www.w3.org/1999/xlink" x="0px" y="0px"
	 viewBox="0 0 160 30" style="enable-background:new 0 0 160 30;" xml:space="preserve">
<style type="text/css">
	.st0{fill:#FFFFFF;}
</style>
<path class="st0" d="M26.8,2.1v25.2h-2.6V7.1l-9.9,17h-1.3L3.2,7.2v20.1H0.6V2.1h2.2l10.9,18.7L24.6,2.1H26.8z"/>
<path class="st0" d="M86.2,2.1v25.2h-2.2L67.9,6.8v20.4h-2.7V2.1h2.2l16.2,20.4V2.1H86.2z"/>
<path class="st0" d="M99.4,4.4h-8.9V2.1h20.4v2.3H102v22.9h-2.7V4.4z"/>
<path class="st0" d="M132.3,27.3l-5.8-8.1c-0.6,0.1-1.3,0.1-2,0.1h-6.8v8h-2.7V2.1h9.4c3.2,0,5.7,0.8,7.6,2.3
	c1.8,1.5,2.7,3.6,2.7,6.3c0,2-0.5,3.6-1.5,5c-1,1.4-2.4,2.3-4.3,2.9l6.2,8.6H132.3z M130.2,15.3c1.3-1.1,2-2.7,2-4.6
	c0-2-0.7-3.6-2-4.7c-1.3-1.1-3.2-1.6-5.7-1.6h-6.7V17h6.7C127,17,128.9,16.4,130.2,15.3z"/>
<path class="st0" d="M159,24.9v2.3h-17.8V2.1h17.3v2.3h-14.6v9h13v2.3h-13v9.4H159z"/>
<g>
	<path class="st0" d="M46.2,14.3c0.9,0,1.5-0.2,2-0.5c0.5-0.4,0.7-0.8,0.7-1.5c0-0.6-0.3-1.1-0.8-1.5c-0.5-0.4-1.2-0.5-2-0.5
		c-0.9,0-1.5,0.2-2,0.5s-0.7,0.9-0.7,1.5c0,0.6,0.2,1.1,0.7,1.5C44.7,14.1,45.4,14.3,46.2,14.3z"/>
	<path class="st0" d="M48.6,15.8c-0.6-0.4-1.3-0.6-2.3-0.6c-1,0-1.8,0.2-2.3,0.6s-0.8,0.9-0.8,1.6c0,0.7,0.3,1.3,0.8,1.7
		c0.6,0.4,1.3,0.6,2.3,0.6c1,0,1.8-0.2,2.3-0.6c0.6-0.4,0.8-1,0.8-1.6C49.4,16.8,49.1,16.2,48.6,15.8z"/>
	<path class="st0" d="M57.5,8.1c-1.2-2-2.7-3.5-4.7-4.6c-2-1.1-4.3-1.7-6.8-1.7c-2.5,0-4.8,0.6-6.8,1.7c-2,1.1-3.6,2.6-4.8,4.6
		c-1.1,1.9-1.7,4.1-1.7,6.6c0,2.4,0.6,4.6,1.7,6.6c1.1,1.9,2.7,3.5,4.8,4.6c2,1.1,4.3,1.7,6.8,1.7c2.5,0,4.7-0.6,6.8-1.7
		c2-1.1,3.6-2.6,4.7-4.6c1.2-2,1.7-4.1,1.7-6.6C59.2,12.2,58.6,10,57.5,8.1z M50.1,19.2c-0.4,0.5-0.9,0.9-1.5,1.1
		c-0.7,0.3-1.4,0.4-2.3,0.4c-1.3,0-2.4-0.3-3.2-0.9c-0.8-0.6-1.2-1.4-1.2-2.4c0-0.7,0.2-1.2,0.6-1.7c0.4-0.5,0.9-0.8,1.6-1
		c-0.6-0.2-1-0.5-1.3-1c-0.3-0.4-0.4-0.9-0.4-1.5c0-0.9,0.4-1.6,1.1-2.2c0.7-0.5,1.7-0.8,2.9-0.8c0.8,0,1.5,0.1,2.1,0.4
		c0.6,0.2,1.1,0.6,1.4,1c0.3,0.4,0.5,1,0.5,1.6c0,0.6-0.2,1.1-0.5,1.5c-0.3,0.4-0.8,0.7-1.3,1c0.7,0.2,1.2,0.6,1.6,1.1
		c0.4,0.5,0.6,1,0.6,1.7C50.6,18.1,50.4,18.7,50.1,19.2z"/>
</g>
</svg>
